<svg width="1331" height="476" viewBox="0 0 1331 476" fill="none" xmlns="http://www.w3.org/2000/svg">
<path d="M283.31 120L334.613 260.954" stroke="black" stroke-width="169" stroke-linecap="round"/>
<path d="M491.841 120L590.373 390.713" stroke="black" stroke-width="169" stroke-linecap="round"/>
<path d="M85 120L134.266 255.357L183.532 390.713" stroke="black" stroke-width="169" stroke-linecap="round"/>
<path d="M294.31 85L345.613 225.954" stroke="white" stroke-width="169" stroke-linecap="round"/>
<path d="M503 85L601.532 355.713" stroke="white" stroke-width="169" stroke-linecap="round"/>
<path d="M85 85L183.532 355.713" stroke="white" stroke-width="169" stroke-linecap="round"/>
<path d="M736.441 175V82.8785H767.95L785.096 135.583C785.518 137.059 785.918 138.493 786.298 139.885C786.678 141.277 787.015 142.753 787.31 144.314H787.563C787.859 142.753 788.196 141.277 788.576 139.885C788.955 138.493 789.356 137.059 789.778 135.583L806.924 82.8785H838.433V175H816.351V121.094C816.351 119.66 816.351 118.057 816.351 116.285C816.394 114.514 816.478 112.911 816.605 111.477H816.225C815.972 112.995 815.634 114.619 815.213 116.348C814.791 118.036 814.369 119.617 813.947 121.094L797.244 175H776.871L760.041 121.094C759.619 119.617 759.176 117.888 758.712 115.906C758.248 113.923 757.953 112.447 757.826 111.477H757.51C757.552 112.447 757.594 113.944 757.637 115.969C757.721 117.951 757.763 119.66 757.763 121.094V175H736.441ZM846.405 158.36C846.405 152.581 848.725 147.963 853.365 144.504C858.004 141.045 864.205 139.316 871.966 139.316H886.898V135.583C886.898 132.967 886.265 130.985 885 129.635C883.734 128.243 881.689 127.547 878.862 127.547C876.079 127.547 873.927 128.138 872.409 129.319C870.933 130.5 870.194 132.187 870.194 134.381V135.709L850.454 135.646V134.064C850.454 128.454 853.111 123.962 858.426 120.588C863.783 117.213 871.122 115.526 880.444 115.526C889.935 115.526 896.979 117.171 901.576 120.461C906.216 123.751 908.536 129.108 908.536 136.532V161.65C908.536 164.054 908.747 166.332 909.169 168.483C909.591 170.634 910.223 172.511 911.067 174.114V175H889.682C889.007 173.945 888.48 172.722 888.1 171.33C887.72 169.938 887.446 168.462 887.277 166.901C885.843 169.179 883.376 171.246 879.875 173.102C876.374 174.916 871.966 175.823 866.651 175.823C860.324 175.823 855.368 174.346 851.783 171.394C848.197 168.441 846.405 164.096 846.405 158.36ZM867.79 156.778C867.79 159.225 868.486 161.059 869.878 162.283C871.27 163.464 873.252 164.054 875.825 164.054C878.609 164.054 881.14 163.063 883.418 161.081C885.738 159.056 886.898 156.778 886.898 154.247V149.882H879.052C875.214 149.882 872.367 150.388 870.511 151.4C868.697 152.413 867.79 154.205 867.79 156.778ZM914.42 132.609V117.044H957.507V132.609H914.42ZM923.531 156.778V119.765L924.164 119.069V97.6205H944.79V151.21C944.79 155.428 945.317 158.128 946.372 159.309C947.468 160.49 949.198 161.081 951.56 161.081C952.699 161.081 953.753 161.017 954.723 160.891C955.736 160.764 956.706 160.511 957.634 160.131V174.684C956.411 175.021 954.555 175.359 952.066 175.696C949.62 176.076 946.477 176.265 942.639 176.265C936.438 176.265 931.693 174.747 928.403 171.71C925.155 168.631 923.531 163.654 923.531 156.778ZM964.467 175V82.8152H986.169V124.827C987.561 122.043 989.881 119.807 993.129 118.12C996.419 116.391 1000.49 115.526 1005.34 115.526C1011.29 115.526 1016.1 117.171 1019.77 120.461C1023.48 123.751 1025.33 129.129 1025.33 136.595V175H1003.63V140.644C1003.63 137.354 1002.94 135.013 1001.54 133.621C1000.15 132.187 998.232 131.47 995.786 131.47C993.592 131.47 991.652 132.145 989.965 133.495C988.32 134.802 987.055 136.49 986.169 138.556V175H964.467ZM1032.55 146.845V144.82C1032.55 135.794 1035.48 128.623 1041.34 123.308C1047.2 117.951 1055.11 115.273 1065.07 115.273C1074.77 115.273 1082.21 117.846 1087.4 122.992C1092.63 128.138 1095.25 135.182 1095.25 144.124V149.882H1043.93V139.316H1074.37V138.873C1074.37 136.342 1073.59 134.254 1072.03 132.609C1070.47 130.922 1068.06 130.078 1064.81 130.078C1061.31 130.078 1058.66 131.322 1056.84 133.811C1055.07 136.258 1054.18 139.126 1054.18 142.416V146.971C1054.18 151.653 1055.15 155.26 1057.09 157.79C1059.08 160.321 1061.9 161.587 1065.57 161.587C1068.31 161.587 1070.57 161.038 1072.34 159.942C1074.16 158.845 1075.55 157.348 1076.52 155.449L1094.93 159.942C1092.99 165.172 1089.7 169.242 1085.06 172.153C1080.42 175.063 1073.97 176.518 1065.7 176.518C1055.2 176.518 1047.03 173.882 1041.21 168.61C1035.44 163.295 1032.55 156.04 1032.55 146.845ZM1102.21 155.386V117.044H1123.91V152.033C1123.91 155.323 1124.58 157.622 1125.93 158.929C1127.32 160.237 1129.26 160.891 1131.75 160.891C1133.9 160.891 1135.78 160.216 1137.38 158.866C1139.03 157.516 1140.34 155.787 1141.31 153.678V117.044H1163.07V175H1141.62L1141.5 166.838C1139.94 169.749 1137.53 172.09 1134.28 173.861C1131.04 175.633 1127.01 176.518 1122.2 176.518C1116.21 176.518 1111.38 174.873 1107.71 171.583C1104.04 168.293 1102.21 162.894 1102.21 155.386ZM1171.68 156.145L1190.66 156.399V157.601C1190.66 160.342 1191.52 162.24 1193.25 163.295C1195.02 164.307 1197.39 164.813 1200.34 164.813C1203.21 164.813 1205.27 164.413 1206.54 163.611C1207.85 162.768 1208.5 161.46 1208.5 159.689C1208.5 158.044 1207.57 156.757 1205.72 155.829C1203.86 154.859 1200.38 153.91 1195.28 152.982C1187.43 151.548 1181.76 149.312 1178.26 146.275C1174.76 143.196 1173.01 138.957 1173.01 133.558C1173.01 127.568 1175.45 123.013 1180.35 119.892C1185.24 116.77 1192.09 115.21 1200.91 115.21C1209.51 115.21 1216.24 116.834 1221.09 120.081C1225.98 123.287 1228.43 127.927 1228.43 134.001V135.33H1209.45V134.001C1209.45 131.597 1208.65 129.909 1207.05 128.939C1205.48 127.969 1203.25 127.484 1200.34 127.484C1197.85 127.484 1196.04 127.864 1194.9 128.623C1193.8 129.34 1193.25 130.479 1193.25 132.04C1193.25 133.431 1194.18 134.57 1196.04 135.456C1197.89 136.342 1201.37 137.249 1206.48 138.177C1214.79 139.569 1220.8 141.72 1224.51 144.63C1228.22 147.499 1230.08 151.463 1230.08 156.525C1230.08 163.232 1227.59 168.251 1222.61 171.583C1217.63 174.873 1210.4 176.518 1200.91 176.518C1191.67 176.518 1184.54 174.852 1179.52 171.52C1174.55 168.188 1171.95 163.443 1171.74 157.284L1171.68 156.145ZM736.441 273V180.879H790.79V198.657H758.839V219.537H786.678V235.797H758.839V273H736.441ZM792.878 244.845V242.82C792.878 233.794 795.81 226.623 801.673 221.308C807.536 215.951 815.445 213.273 825.399 213.273C835.101 213.273 842.545 215.846 847.733 220.992C852.964 226.138 855.579 233.182 855.579 242.124V247.882H804.267V237.316H834.7V236.873C834.7 234.342 833.919 232.254 832.359 230.609C830.798 228.922 828.394 228.078 825.146 228.078C821.645 228.078 818.988 229.322 817.174 231.811C815.402 234.258 814.517 237.126 814.517 240.416V244.971C814.517 249.653 815.487 253.26 817.427 255.79C819.41 258.321 822.236 259.587 825.905 259.587C828.647 259.587 830.904 259.038 832.675 257.942C834.489 256.845 835.881 255.348 836.851 253.449L855.263 257.942C853.322 263.172 850.032 267.242 845.392 270.153C840.753 273.063 834.299 274.518 826.032 274.518C815.529 274.518 807.367 271.882 801.546 266.61C795.768 261.295 792.878 254.04 792.878 244.845ZM862.982 273V215.044H884.936V223.143H885C886.687 220.444 888.859 218.25 891.516 216.563C894.174 214.876 897.211 214.032 900.627 214.032C901.935 214.032 903.158 214.116 904.297 214.285C905.436 214.454 906.216 214.623 906.638 214.791V230.546C905.837 230.208 904.867 229.976 903.728 229.85C902.589 229.681 901.323 229.597 899.931 229.597C897.19 229.597 894.448 230.482 891.706 232.254C889.007 233.983 886.856 236.303 885.253 239.214V273H862.982ZM912.206 273V215.044H933.654V223.08H933.844C935.321 220.169 937.683 217.849 940.931 216.12C944.178 214.391 948.207 213.526 953.015 213.526C959.005 213.526 963.834 215.171 967.504 218.461C971.216 221.751 973.072 227.129 973.072 234.595V273H951.37V238.644C951.37 235.396 950.674 233.055 949.282 231.621C947.89 230.187 945.971 229.47 943.525 229.47C941.373 229.47 939.454 230.145 937.767 231.495C936.122 232.802 934.836 234.511 933.908 236.62V273H912.206ZM980.411 256.36C980.411 250.581 982.731 245.963 987.371 242.504C992.011 239.045 998.211 237.316 1005.97 237.316H1020.9V233.583C1020.9 230.967 1020.27 228.985 1019.01 227.635C1017.74 226.243 1015.69 225.547 1012.87 225.547C1010.08 225.547 1007.93 226.138 1006.42 227.319C1004.94 228.5 1004.2 230.187 1004.2 232.381V233.709L984.46 233.646V232.064C984.46 226.454 987.118 221.962 992.433 218.588C997.789 215.213 1005.13 213.526 1014.45 213.526C1023.94 213.526 1030.99 215.171 1035.58 218.461C1040.22 221.751 1042.54 227.108 1042.54 234.532V259.65C1042.54 262.054 1042.75 264.332 1043.18 266.483C1043.6 268.634 1044.23 270.511 1045.07 272.114V273H1023.69C1023.01 271.945 1022.49 270.722 1022.11 269.33C1021.73 267.938 1021.45 266.462 1021.28 264.901C1019.85 267.179 1017.38 269.246 1013.88 271.102C1010.38 272.916 1005.97 273.823 1000.66 273.823C994.331 273.823 989.374 272.346 985.789 269.394C982.204 266.441 980.411 262.096 980.411 256.36ZM1001.8 254.778C1001.8 257.225 1002.49 259.059 1003.88 260.283C1005.28 261.464 1007.26 262.054 1009.83 262.054C1012.62 262.054 1015.15 261.063 1017.42 259.081C1019.74 257.056 1020.9 254.778 1020.9 252.247V247.882H1013.06C1009.22 247.882 1006.37 248.388 1004.52 249.4C1002.7 250.413 1001.8 252.205 1001.8 254.778ZM1052.92 273V215.044H1074.37V223.08H1074.56C1076.03 220.169 1078.4 217.849 1081.64 216.12C1084.89 214.391 1088.92 213.526 1093.73 213.526C1099.72 213.526 1104.55 215.171 1108.22 218.461C1111.93 221.751 1113.78 227.129 1113.78 234.595V273H1092.08V238.644C1092.08 235.396 1091.39 233.055 1090 231.621C1088.6 230.187 1086.68 229.47 1084.24 229.47C1082.09 229.47 1080.17 230.145 1078.48 231.495C1076.84 232.802 1075.55 234.511 1074.62 236.62V273H1052.92ZM1121 244.971V242.947C1121 234.511 1123.25 227.551 1127.77 222.067C1132.32 216.542 1138.27 213.779 1145.61 213.779C1150.17 213.779 1154 214.496 1157.12 215.93C1160.25 217.364 1162.67 219.262 1164.4 221.625V180.815H1185.6V273H1164.72L1164.65 264.585H1164.59C1162.86 267.242 1160.39 269.52 1157.19 271.418C1153.98 273.316 1150.12 274.265 1145.61 274.265C1138.06 274.265 1132.07 271.503 1127.64 265.977C1123.21 260.451 1121 253.449 1121 244.971ZM1142.89 244.718C1142.89 249.105 1143.77 252.69 1145.55 255.474C1147.32 258.258 1150.06 259.65 1153.77 259.65C1156.26 259.65 1158.39 258.912 1160.16 257.436C1161.93 255.959 1163.2 254.293 1163.96 252.437V235.228C1163.2 233.33 1161.93 231.727 1160.16 230.419C1158.39 229.112 1156.26 228.458 1153.77 228.458C1150.02 228.458 1147.25 229.85 1145.48 232.634C1143.75 235.417 1142.89 238.982 1142.89 243.326V244.718ZM1193.13 244.845V242.82C1193.13 233.794 1196.06 226.623 1201.92 221.308C1207.78 215.951 1215.69 213.273 1225.65 213.273C1235.35 213.273 1242.79 215.846 1247.98 220.992C1253.21 226.138 1255.83 233.182 1255.83 242.124V247.882H1204.51V237.316H1234.95V236.873C1234.95 234.342 1234.17 232.254 1232.61 230.609C1231.05 228.922 1228.64 228.078 1225.39 228.078C1221.89 228.078 1219.24 229.322 1217.42 231.811C1215.65 234.258 1214.76 237.126 1214.76 240.416V244.971C1214.76 249.653 1215.73 253.26 1217.67 255.79C1219.66 258.321 1222.48 259.587 1226.15 259.587C1228.89 259.587 1231.15 259.038 1232.92 257.942C1234.74 256.845 1236.13 255.348 1237.1 253.449L1255.51 257.942C1253.57 263.172 1250.28 267.242 1245.64 270.153C1241 273.063 1234.55 274.518 1226.28 274.518C1215.78 274.518 1207.61 271.882 1201.79 266.61C1196.02 261.295 1193.13 254.04 1193.13 244.845ZM1261.52 254.145L1280.5 254.399V255.601C1280.5 258.342 1281.37 260.24 1283.1 261.295C1284.87 262.307 1287.23 262.813 1290.18 262.813C1293.05 262.813 1295.12 262.413 1296.38 261.611C1297.69 260.768 1298.34 259.46 1298.34 257.689C1298.34 256.044 1297.42 254.757 1295.56 253.829C1293.7 252.859 1290.22 251.91 1285.12 250.982C1277.28 249.548 1271.6 247.312 1268.1 244.275C1264.6 241.196 1262.85 236.957 1262.85 231.558C1262.85 225.568 1265.3 221.013 1270.19 217.892C1275.08 214.77 1281.94 213.21 1290.75 213.21C1299.36 213.21 1306.08 214.834 1310.93 218.081C1315.83 221.287 1318.27 225.927 1318.27 232.001V233.33H1299.29V232.001C1299.29 229.597 1298.49 227.909 1296.89 226.939C1295.33 225.969 1293.09 225.484 1290.18 225.484C1287.69 225.484 1285.88 225.864 1284.74 226.623C1283.64 227.34 1283.1 228.479 1283.1 230.04C1283.1 231.431 1284.02 232.57 1285.88 233.456C1287.74 234.342 1291.22 235.249 1296.32 236.177C1304.63 237.569 1310.64 239.72 1314.35 242.63C1318.06 245.499 1319.92 249.463 1319.92 254.525C1319.92 261.232 1317.43 266.251 1312.45 269.583C1307.48 272.873 1300.24 274.518 1290.75 274.518C1281.51 274.518 1274.39 272.852 1269.37 269.52C1264.39 266.188 1261.8 261.443 1261.58 255.284L1261.52 254.145ZM736.441 371V278.879H773.897C782.713 278.879 789.694 281.557 794.84 286.914C799.986 292.229 802.559 299.209 802.559 307.856C802.559 316.756 799.817 324.032 794.333 329.685C788.892 335.294 781.996 338.099 773.644 338.099H758.839V371H736.441ZM758.839 323.547H768.582C772.758 323.547 775.69 322.219 777.377 319.561C779.064 316.862 779.908 313.403 779.908 309.185C779.908 304.967 779.064 301.529 777.377 298.872C775.69 296.172 772.758 294.802 768.582 294.759H758.839V323.547ZM781.869 371L765.166 330.95L784.906 325.192L806.291 371H781.869ZM807.683 342.908V340.82C807.683 332.004 810.699 324.876 816.731 319.435C822.805 313.951 830.861 311.21 840.9 311.21C850.981 311.21 859.038 313.951 865.07 319.435C871.101 324.876 874.117 332.004 874.117 340.82V342.908C874.117 351.808 871.101 358.979 865.07 364.42C859.038 369.819 850.981 372.518 840.9 372.518C830.819 372.518 822.763 369.819 816.731 364.42C810.699 358.979 807.683 351.808 807.683 342.908ZM829.575 340.124V343.477C829.575 347.611 830.524 350.986 832.422 353.601C834.362 356.174 837.188 357.46 840.9 357.46C844.612 357.46 847.417 356.174 849.315 353.601C851.256 350.986 852.226 347.611 852.226 343.477V340.124C852.226 336.075 851.256 332.785 849.315 330.254C847.417 327.723 844.612 326.458 840.9 326.458C837.188 326.458 834.362 327.723 832.422 330.254C830.524 332.785 829.575 336.075 829.575 340.124ZM878.926 342.971V340.947C878.926 332.511 881.182 325.551 885.696 320.067C890.251 314.542 896.199 311.779 903.538 311.779C908.093 311.779 911.932 312.496 915.053 313.93C918.174 315.364 920.6 317.262 922.329 319.625V278.815H943.525V371H922.645L922.582 362.585H922.519C920.79 365.242 918.322 367.52 915.116 369.418C911.911 371.316 908.051 372.265 903.538 372.265C895.988 372.265 889.998 369.503 885.569 363.977C881.14 358.451 878.926 351.449 878.926 342.971ZM900.817 342.718C900.817 347.105 901.703 350.69 903.475 353.474C905.246 356.258 907.988 357.65 911.7 357.65C914.188 357.65 916.318 356.912 918.09 355.436C919.862 353.959 921.127 352.293 921.886 350.437V333.228C921.127 331.33 919.862 329.727 918.09 328.419C916.318 327.112 914.188 326.458 911.7 326.458C907.946 326.458 905.183 327.85 903.411 330.634C901.682 333.417 900.817 336.982 900.817 341.326V342.718ZM953.838 371V313.044H975.792V321.143H975.856C977.543 318.444 979.715 316.25 982.373 314.563C985.03 312.876 988.067 312.032 991.483 312.032C992.791 312.032 994.014 312.116 995.153 312.285C996.292 312.454 997.072 312.623 997.494 312.791V328.546C996.693 328.208 995.723 327.976 994.584 327.85C993.445 327.681 992.179 327.597 990.788 327.597C988.046 327.597 985.304 328.482 982.562 330.254C979.863 331.983 977.712 334.303 976.109 337.214V371H953.838ZM1003.25 371V313.044H1025.33V371H1003.25ZM1002.18 292.545C1002.18 289.466 1003.23 286.872 1005.34 284.763C1007.45 282.611 1010.46 281.536 1014.39 281.536C1018.31 281.536 1021.3 282.59 1023.37 284.699C1025.44 286.766 1026.47 289.381 1026.47 292.545C1026.47 295.582 1025.4 298.197 1023.25 300.39C1021.14 302.542 1018.12 303.617 1014.2 303.617C1010.32 303.617 1007.34 302.542 1005.28 300.39C1003.21 298.197 1002.18 295.582 1002.18 292.545ZM1035.96 392.955L1039.25 378.276C1041.07 379.668 1044 381.06 1048.05 382.452C1052.14 383.886 1056.12 384.603 1060.01 384.603C1064.01 384.603 1067.68 383.485 1071.01 381.25C1074.35 379.014 1076.01 374.965 1076.01 369.102V362.901C1074.11 365.517 1071.73 367.647 1068.86 369.292C1065.99 370.937 1062.03 371.759 1056.97 371.759C1049.8 371.759 1044.04 369.081 1039.7 363.724C1035.35 358.367 1033.18 351.449 1033.18 342.971V340.947C1033.18 332.511 1035.25 325.551 1039.38 320.067C1043.51 314.542 1049.38 311.779 1056.97 311.779C1061.02 311.779 1064.71 312.623 1068.04 314.31C1071.41 315.997 1073.97 318.148 1075.7 320.763H1075.89L1075.95 313.044H1097.33V364.989C1097.33 376.041 1094.4 384.477 1088.54 390.297C1082.68 396.118 1074.64 399.029 1064.43 399.029C1058.53 399.029 1053.13 398.417 1048.24 397.194C1043.34 395.971 1039.25 394.558 1035.96 392.955ZM1054.69 342.718C1054.69 347.105 1055.56 350.648 1057.28 353.348C1059.06 356.047 1061.82 357.397 1065.57 357.397C1068.06 357.397 1070.19 356.68 1071.96 355.246C1073.73 353.812 1075 352.145 1075.76 350.247V333.544C1075 331.646 1073.73 330.001 1071.96 328.609C1070.19 327.175 1068.06 326.458 1065.57 326.458C1061.82 326.458 1059.06 327.85 1057.28 330.634C1055.56 333.417 1054.69 336.982 1054.69 341.326V342.718ZM1107.14 351.386V313.044H1128.84V348.033C1128.84 351.323 1129.52 353.622 1130.87 354.929C1132.26 356.237 1134.2 356.891 1136.69 356.891C1138.84 356.891 1140.72 356.216 1142.32 354.866C1143.96 353.516 1145.27 351.787 1146.24 349.678V313.044H1168.01V371H1146.56L1146.43 362.838C1144.87 365.749 1142.47 368.09 1139.22 369.861C1135.97 371.633 1131.94 372.518 1127.13 372.518C1121.15 372.518 1116.32 370.873 1112.65 367.583C1108.98 364.293 1107.14 358.894 1107.14 351.386ZM1175.54 342.845V340.82C1175.54 331.794 1178.47 324.623 1184.33 319.308C1190.19 313.951 1198.1 311.273 1208.06 311.273C1217.76 311.273 1225.2 313.846 1230.39 318.992C1235.62 324.138 1238.24 331.182 1238.24 340.124V345.882H1186.93V335.316H1217.36V334.873C1217.36 332.342 1216.58 330.254 1215.02 328.609C1213.46 326.922 1211.05 326.078 1207.8 326.078C1204.3 326.078 1201.65 327.322 1199.83 329.811C1198.06 332.258 1197.18 335.126 1197.18 338.416V342.971C1197.18 347.653 1198.15 351.26 1200.09 353.79C1202.07 356.321 1204.89 357.587 1208.56 357.587C1211.31 357.587 1213.56 357.038 1215.33 355.942C1217.15 354.845 1218.54 353.348 1219.51 351.449L1237.92 355.942C1235.98 361.172 1232.69 365.242 1228.05 368.153C1223.41 371.063 1216.96 372.518 1208.69 372.518C1198.19 372.518 1190.03 369.882 1184.2 364.61C1178.43 359.295 1175.54 352.04 1175.54 342.845ZM1243.93 352.145L1262.91 352.399V353.601C1262.91 356.342 1263.78 358.24 1265.51 359.295C1267.28 360.307 1269.64 360.813 1272.59 360.813C1275.46 360.813 1277.53 360.413 1278.79 359.611C1280.1 358.768 1280.76 357.46 1280.76 355.689C1280.76 354.044 1279.83 352.757 1277.97 351.829C1276.12 350.859 1272.64 349.91 1267.53 348.982C1259.69 347.548 1254.01 345.312 1250.51 342.275C1247.01 339.196 1245.26 334.957 1245.26 329.558C1245.26 323.568 1247.71 319.013 1252.6 315.892C1257.49 312.77 1264.35 311.21 1273.16 311.21C1281.77 311.21 1288.5 312.834 1293.35 316.081C1298.24 319.287 1300.69 323.927 1300.69 330.001V331.33H1281.7V330.001C1281.7 327.597 1280.9 325.909 1279.3 324.939C1277.74 323.969 1275.5 323.484 1272.59 323.484C1270.1 323.484 1268.29 323.864 1267.15 324.623C1266.06 325.34 1265.51 326.479 1265.51 328.04C1265.51 329.431 1266.43 330.57 1268.29 331.456C1270.15 332.342 1273.63 333.249 1278.73 334.177C1287.04 335.569 1293.05 337.72 1296.76 340.63C1300.47 343.499 1302.33 347.463 1302.33 352.525C1302.33 359.232 1299.84 364.251 1294.86 367.583C1289.89 370.873 1282.65 372.518 1273.16 372.518C1263.93 372.518 1256.8 370.852 1251.78 367.52C1246.8 364.188 1244.21 359.443 1244 353.284L1243.93 352.145Z" fill="white"/>
</svg>
