<svg width="143" height="29" viewBox="0 0 143 29" fill="none" xmlns="http://www.w3.org/2000/svg">
<path d="M5.86614 9.752L0.154144 7.58V6.02L5.86614 3.848V5.348L0.718144 7.22V6.38L5.86614 8.252V9.752Z" fill="white"/>
<path d="M7.58974 11V2.6H9.19774L12.7737 8.528H11.9217L15.4377 2.6H17.0337L17.0577 11H15.2337L15.2217 5.396H15.5577L12.7497 10.112H11.8737L9.00574 5.396H9.41374V11H7.58974Z" fill="white"/>
<path d="M22.8787 11V9.74L22.7587 9.464V7.208C22.7587 6.808 22.6347 6.496 22.3867 6.272C22.1467 6.048 21.7747 5.936 21.2707 5.936C20.9267 5.936 20.5867 5.992 20.2507 6.104C19.9227 6.208 19.6427 6.352 19.4107 6.536L18.7387 5.228C19.0907 4.98 19.5147 4.788 20.0107 4.652C20.5067 4.516 21.0107 4.448 21.5227 4.448C22.5067 4.448 23.2707 4.68 23.8147 5.144C24.3587 5.608 24.6307 6.332 24.6307 7.316V11H22.8787ZM20.9107 11.096C20.4067 11.096 19.9747 11.012 19.6147 10.844C19.2547 10.668 18.9787 10.432 18.7867 10.136C18.5947 9.84 18.4987 9.508 18.4987 9.14C18.4987 8.756 18.5907 8.42 18.7747 8.132C18.9667 7.844 19.2667 7.62 19.6747 7.46C20.0827 7.292 20.6147 7.208 21.2707 7.208H22.9867V8.3H21.4747C21.0347 8.3 20.7307 8.372 20.5627 8.516C20.4027 8.66 20.3227 8.84 20.3227 9.056C20.3227 9.296 20.4147 9.488 20.5987 9.632C20.7907 9.768 21.0507 9.836 21.3787 9.836C21.6907 9.836 21.9707 9.764 22.2187 9.62C22.4667 9.468 22.6467 9.248 22.7587 8.96L23.0467 9.824C22.9107 10.24 22.6627 10.556 22.3027 10.772C21.9427 10.988 21.4787 11.096 20.9107 11.096Z" fill="white"/>
<path d="M28.9649 11.096C28.2049 11.096 27.6129 10.904 27.1889 10.52C26.7649 10.128 26.5529 9.548 26.5529 8.78V3.116H28.4249V8.756C28.4249 9.028 28.4969 9.24 28.6409 9.392C28.7849 9.536 28.9809 9.608 29.2289 9.608C29.5249 9.608 29.7769 9.528 29.9849 9.368L30.4889 10.688C30.2969 10.824 30.0649 10.928 29.7929 11C29.5289 11.064 29.2529 11.096 28.9649 11.096ZM25.5569 6.128V4.688H30.0329V6.128H25.5569Z" fill="white"/>
<path d="M35.4638 4.448C35.9758 4.448 36.4318 4.552 36.8318 4.76C37.2398 4.96 37.5598 5.272 37.7918 5.696C38.0238 6.112 38.1398 6.648 38.1398 7.304V11H36.2678V7.592C36.2678 7.072 36.1518 6.688 35.9198 6.44C35.6958 6.192 35.3758 6.068 34.9598 6.068C34.6638 6.068 34.3958 6.132 34.1558 6.26C33.9238 6.38 33.7398 6.568 33.6038 6.824C33.4758 7.08 33.4118 7.408 33.4118 7.808V11H31.5398V2.096H33.4118V6.332L32.9918 5.792C33.2238 5.36 33.5558 5.028 33.9878 4.796C34.4198 4.564 34.9118 4.448 35.4638 4.448Z" fill="white"/>
<path d="M43.0875 11.096C42.3515 11.096 41.7035 10.952 41.1435 10.664C40.5915 10.376 40.1635 9.984 39.8595 9.488C39.5555 8.984 39.4035 8.412 39.4035 7.772C39.4035 7.124 39.5515 6.552 39.8475 6.056C40.1515 5.552 40.5635 5.16 41.0835 4.88C41.6035 4.592 42.1915 4.448 42.8475 4.448C43.4795 4.448 44.0475 4.584 44.5515 4.856C45.0635 5.12 45.4675 5.504 45.7635 6.008C46.0595 6.504 46.2075 7.1 46.2075 7.796C46.2075 7.868 46.2035 7.952 46.1955 8.048C46.1875 8.136 46.1795 8.22 46.1715 8.3H40.9275V7.208H45.1875L44.4675 7.532C44.4675 7.196 44.3995 6.904 44.2635 6.656C44.1275 6.408 43.9395 6.216 43.6995 6.08C43.4595 5.936 43.1795 5.864 42.8595 5.864C42.5395 5.864 42.2555 5.936 42.0075 6.08C41.7675 6.216 41.5795 6.412 41.4435 6.668C41.3075 6.916 41.2395 7.212 41.2395 7.556V7.844C41.2395 8.196 41.3155 8.508 41.4675 8.78C41.6275 9.044 41.8475 9.248 42.1275 9.392C42.4155 9.528 42.7515 9.596 43.1355 9.596C43.4795 9.596 43.7795 9.544 44.0355 9.44C44.2995 9.336 44.5395 9.18 44.7555 8.972L45.7515 10.052C45.4555 10.388 45.0835 10.648 44.6355 10.832C44.1875 11.008 43.6715 11.096 43.0875 11.096Z" fill="white"/>
<path d="M50.1778 11.096C49.6418 11.096 49.1618 10.992 48.7378 10.784C48.3218 10.576 47.9978 10.26 47.7658 9.836C47.5338 9.404 47.4178 8.856 47.4178 8.192V4.544H49.2898V7.916C49.2898 8.452 49.4018 8.848 49.6258 9.104C49.8578 9.352 50.1818 9.476 50.5978 9.476C50.8858 9.476 51.1418 9.416 51.3658 9.296C51.5898 9.168 51.7658 8.976 51.8938 8.72C52.0218 8.456 52.0858 8.128 52.0858 7.736V4.544H53.9578V11H52.1818V9.224L52.5058 9.74C52.2898 10.188 51.9698 10.528 51.5458 10.76C51.1298 10.984 50.6738 11.096 50.1778 11.096Z" fill="white"/>
<path d="M57.8641 11.096C57.3121 11.096 56.7801 11.032 56.2681 10.904C55.7641 10.768 55.3641 10.6 55.0681 10.4L55.6921 9.056C55.9881 9.24 56.3361 9.392 56.7361 9.512C57.1441 9.624 57.5441 9.68 57.9361 9.68C58.3681 9.68 58.6721 9.628 58.8481 9.524C59.0321 9.42 59.1241 9.276 59.1241 9.092C59.1241 8.94 59.0521 8.828 58.9081 8.756C58.7721 8.676 58.5881 8.616 58.3561 8.576C58.1241 8.536 57.8681 8.496 57.5881 8.456C57.3161 8.416 57.0401 8.364 56.7601 8.3C56.4801 8.228 56.2241 8.124 55.9921 7.988C55.7601 7.852 55.5721 7.668 55.4281 7.436C55.2921 7.204 55.2241 6.904 55.2241 6.536C55.2241 6.128 55.3401 5.768 55.5721 5.456C55.8121 5.144 56.1561 4.9 56.6041 4.724C57.0521 4.54 57.5881 4.448 58.2121 4.448C58.6521 4.448 59.1001 4.496 59.5561 4.592C60.0121 4.688 60.3921 4.828 60.6961 5.012L60.0721 6.344C59.7601 6.16 59.4441 6.036 59.1241 5.972C58.8121 5.9 58.5081 5.864 58.2121 5.864C57.7961 5.864 57.4921 5.92 57.3001 6.032C57.1081 6.144 57.0121 6.288 57.0121 6.464C57.0121 6.624 57.0801 6.744 57.2161 6.824C57.3601 6.904 57.5481 6.968 57.7801 7.016C58.0121 7.064 58.2641 7.108 58.5361 7.148C58.8161 7.18 59.0961 7.232 59.3761 7.304C59.6561 7.376 59.9081 7.48 60.1321 7.616C60.3641 7.744 60.5521 7.924 60.6961 8.156C60.8401 8.38 60.9121 8.676 60.9121 9.044C60.9121 9.444 60.7921 9.8 60.5521 10.112C60.3121 10.416 59.9641 10.656 59.5081 10.832C59.0601 11.008 58.5121 11.096 57.8641 11.096Z" fill="white"/>
<path d="M67.3976 6.38H71.4296V7.94H67.3976V6.38ZM67.5415 11H65.5975V2.6H71.9455V4.16H67.5415V11Z" fill="white"/>
<path d="M76.1813 11.096C75.4453 11.096 74.7973 10.952 74.2373 10.664C73.6853 10.376 73.2573 9.984 72.9533 9.488C72.6493 8.984 72.4973 8.412 72.4973 7.772C72.4973 7.124 72.6453 6.552 72.9413 6.056C73.2453 5.552 73.6573 5.16 74.1773 4.88C74.6973 4.592 75.2853 4.448 75.9413 4.448C76.5733 4.448 77.1413 4.584 77.6453 4.856C78.1573 5.12 78.5613 5.504 78.8573 6.008C79.1533 6.504 79.3013 7.1 79.3013 7.796C79.3013 7.868 79.2973 7.952 79.2893 8.048C79.2813 8.136 79.2733 8.22 79.2653 8.3H74.0213V7.208H78.2813L77.5613 7.532C77.5613 7.196 77.4933 6.904 77.3573 6.656C77.2213 6.408 77.0333 6.216 76.7933 6.08C76.5533 5.936 76.2733 5.864 75.9533 5.864C75.6333 5.864 75.3493 5.936 75.1013 6.08C74.8613 6.216 74.6733 6.412 74.5373 6.668C74.4013 6.916 74.3333 7.212 74.3333 7.556V7.844C74.3333 8.196 74.4093 8.508 74.5613 8.78C74.7213 9.044 74.9413 9.248 75.2213 9.392C75.5093 9.528 75.8453 9.596 76.2293 9.596C76.5733 9.596 76.8733 9.544 77.1293 9.44C77.3933 9.336 77.6333 9.18 77.8493 8.972L78.8453 10.052C78.5493 10.388 78.1773 10.648 77.7293 10.832C77.2813 11.008 76.7653 11.096 76.1813 11.096Z" fill="white"/>
<path d="M80.5476 11V4.544H82.3356V6.368L82.0836 5.84C82.2756 5.384 82.5836 5.04 83.0076 4.808C83.4316 4.568 83.9476 4.448 84.5556 4.448V6.176C84.4756 6.168 84.4036 6.164 84.3396 6.164C84.2756 6.156 84.2076 6.152 84.1356 6.152C83.6236 6.152 83.2076 6.3 82.8876 6.596C82.5756 6.884 82.4196 7.336 82.4196 7.952V11H80.5476Z" fill="white"/>
<path d="M89.6044 4.448C90.1164 4.448 90.5724 4.552 90.9724 4.76C91.3804 4.96 91.7004 5.272 91.9324 5.696C92.1644 6.112 92.2804 6.648 92.2804 7.304V11H90.4084V7.592C90.4084 7.072 90.2924 6.688 90.0604 6.44C89.8364 6.192 89.5164 6.068 89.1004 6.068C88.8044 6.068 88.5364 6.132 88.2964 6.26C88.0644 6.38 87.8804 6.568 87.7444 6.824C87.6164 7.08 87.5524 7.408 87.5524 7.808V11H85.6804V4.544H87.4684V6.332L87.1324 5.792C87.3644 5.36 87.6964 5.028 88.1284 4.796C88.5604 4.564 89.0524 4.448 89.6044 4.448Z" fill="white"/>
<path d="M97.9373 11V9.74L97.8173 9.464V7.208C97.8173 6.808 97.6933 6.496 97.4453 6.272C97.2053 6.048 96.8333 5.936 96.3293 5.936C95.9853 5.936 95.6453 5.992 95.3093 6.104C94.9813 6.208 94.7013 6.352 94.4693 6.536L93.7973 5.228C94.1493 4.98 94.5733 4.788 95.0693 4.652C95.5653 4.516 96.0693 4.448 96.5813 4.448C97.5653 4.448 98.3293 4.68 98.8733 5.144C99.4173 5.608 99.6893 6.332 99.6893 7.316V11H97.9373ZM95.9693 11.096C95.4653 11.096 95.0333 11.012 94.6733 10.844C94.3133 10.668 94.0373 10.432 93.8453 10.136C93.6533 9.84 93.5573 9.508 93.5573 9.14C93.5573 8.756 93.6493 8.42 93.8333 8.132C94.0253 7.844 94.3253 7.62 94.7333 7.46C95.1413 7.292 95.6733 7.208 96.3293 7.208H98.0453V8.3H96.5333C96.0933 8.3 95.7893 8.372 95.6213 8.516C95.4613 8.66 95.3813 8.84 95.3813 9.056C95.3813 9.296 95.4733 9.488 95.6573 9.632C95.8493 9.768 96.1093 9.836 96.4373 9.836C96.7493 9.836 97.0293 9.764 97.2773 9.62C97.5253 9.468 97.7053 9.248 97.8173 8.96L98.1053 9.824C97.9693 10.24 97.7213 10.556 97.3613 10.772C97.0013 10.988 96.5373 11.096 95.9693 11.096Z" fill="white"/>
<path d="M105.308 4.448C105.82 4.448 106.276 4.552 106.676 4.76C107.084 4.96 107.404 5.272 107.636 5.696C107.868 6.112 107.984 6.648 107.984 7.304V11H106.112V7.592C106.112 7.072 105.996 6.688 105.764 6.44C105.54 6.192 105.22 6.068 104.804 6.068C104.508 6.068 104.24 6.132 104 6.26C103.768 6.38 103.584 6.568 103.448 6.824C103.32 7.08 103.256 7.408 103.256 7.808V11H101.384V4.544H103.172V6.332L102.836 5.792C103.068 5.36 103.4 5.028 103.832 4.796C104.264 4.564 104.756 4.448 105.308 4.448Z" fill="white"/>
<path d="M112.499 11.096C111.891 11.096 111.343 10.96 110.855 10.688C110.367 10.408 109.979 10.02 109.691 9.524C109.411 9.028 109.271 8.444 109.271 7.772C109.271 7.092 109.411 6.504 109.691 6.008C109.979 5.512 110.367 5.128 110.855 4.856C111.343 4.584 111.891 4.448 112.499 4.448C113.043 4.448 113.519 4.568 113.927 4.808C114.335 5.048 114.651 5.412 114.875 5.9C115.099 6.388 115.211 7.012 115.211 7.772C115.211 8.524 115.103 9.148 114.887 9.644C114.671 10.132 114.359 10.496 113.951 10.736C113.551 10.976 113.067 11.096 112.499 11.096ZM112.823 9.56C113.127 9.56 113.403 9.488 113.651 9.344C113.899 9.2 114.095 8.996 114.239 8.732C114.391 8.46 114.467 8.14 114.467 7.772C114.467 7.396 114.391 7.076 114.239 6.812C114.095 6.548 113.899 6.344 113.651 6.2C113.403 6.056 113.127 5.984 112.823 5.984C112.511 5.984 112.231 6.056 111.983 6.2C111.735 6.344 111.535 6.548 111.383 6.812C111.239 7.076 111.167 7.396 111.167 7.772C111.167 8.14 111.239 8.46 111.383 8.732C111.535 8.996 111.735 9.2 111.983 9.344C112.231 9.488 112.511 9.56 112.823 9.56ZM114.515 11V9.68L114.551 7.76L114.431 5.852V2.096H116.303V11H114.515Z" fill="white"/>
<path d="M121.24 11.096C120.504 11.096 119.856 10.952 119.296 10.664C118.744 10.376 118.316 9.984 118.012 9.488C117.708 8.984 117.556 8.412 117.556 7.772C117.556 7.124 117.704 6.552 118 6.056C118.304 5.552 118.716 5.16 119.236 4.88C119.756 4.592 120.344 4.448 121 4.448C121.632 4.448 122.2 4.584 122.704 4.856C123.216 5.12 123.62 5.504 123.916 6.008C124.212 6.504 124.36 7.1 124.36 7.796C124.36 7.868 124.356 7.952 124.348 8.048C124.34 8.136 124.332 8.22 124.324 8.3H119.08V7.208H123.34L122.62 7.532C122.62 7.196 122.552 6.904 122.416 6.656C122.28 6.408 122.092 6.216 121.852 6.08C121.612 5.936 121.332 5.864 121.012 5.864C120.692 5.864 120.408 5.936 120.16 6.08C119.92 6.216 119.732 6.412 119.596 6.668C119.46 6.916 119.392 7.212 119.392 7.556V7.844C119.392 8.196 119.468 8.508 119.62 8.78C119.78 9.044 120 9.248 120.28 9.392C120.568 9.528 120.904 9.596 121.288 9.596C121.632 9.596 121.932 9.544 122.188 9.44C122.452 9.336 122.692 9.18 122.908 8.972L123.904 10.052C123.608 10.388 123.236 10.648 122.788 10.832C122.34 11.008 121.824 11.096 121.24 11.096Z" fill="white"/>
<path d="M127.778 11.096C127.226 11.096 126.694 11.032 126.182 10.904C125.678 10.768 125.278 10.6 124.982 10.4L125.606 9.056C125.902 9.24 126.25 9.392 126.65 9.512C127.058 9.624 127.458 9.68 127.85 9.68C128.282 9.68 128.586 9.628 128.762 9.524C128.946 9.42 129.038 9.276 129.038 9.092C129.038 8.94 128.966 8.828 128.822 8.756C128.686 8.676 128.502 8.616 128.27 8.576C128.038 8.536 127.782 8.496 127.502 8.456C127.23 8.416 126.954 8.364 126.674 8.3C126.394 8.228 126.138 8.124 125.906 7.988C125.674 7.852 125.486 7.668 125.342 7.436C125.206 7.204 125.138 6.904 125.138 6.536C125.138 6.128 125.254 5.768 125.486 5.456C125.726 5.144 126.07 4.9 126.518 4.724C126.966 4.54 127.502 4.448 128.126 4.448C128.566 4.448 129.014 4.496 129.47 4.592C129.926 4.688 130.306 4.828 130.61 5.012L129.986 6.344C129.674 6.16 129.358 6.036 129.038 5.972C128.726 5.9 128.422 5.864 128.126 5.864C127.71 5.864 127.406 5.92 127.214 6.032C127.022 6.144 126.926 6.288 126.926 6.464C126.926 6.624 126.994 6.744 127.13 6.824C127.274 6.904 127.462 6.968 127.694 7.016C127.926 7.064 128.178 7.108 128.45 7.148C128.73 7.18 129.01 7.232 129.29 7.304C129.57 7.376 129.822 7.48 130.046 7.616C130.278 7.744 130.466 7.924 130.61 8.156C130.754 8.38 130.826 8.676 130.826 9.044C130.826 9.444 130.706 9.8 130.466 10.112C130.226 10.416 129.878 10.656 129.422 10.832C128.974 11.008 128.426 11.096 127.778 11.096Z" fill="white"/>
<path d="M130.721 12.2L134.681 0.895996H136.349L132.389 12.2H130.721Z" fill="white"/>
<path d="M136.56 9.752V8.252L141.708 6.38V7.22L136.56 5.348V3.848L142.272 6.02V7.58L136.56 9.752Z" fill="white"/>
<path d="M19.7022 21.38H23.7342V22.94H19.7022V21.38ZM19.8462 26H17.9022V17.6H24.2502V19.16H19.8462V26Z" fill="white"/>
<path d="M28.006 26.096C27.47 26.096 26.99 25.992 26.566 25.784C26.15 25.576 25.826 25.26 25.594 24.836C25.362 24.404 25.246 23.856 25.246 23.192V19.544H27.118V22.916C27.118 23.452 27.23 23.848 27.454 24.104C27.686 24.352 28.01 24.476 28.426 24.476C28.714 24.476 28.97 24.416 29.194 24.296C29.418 24.168 29.594 23.976 29.722 23.72C29.85 23.456 29.914 23.128 29.914 22.736V19.544H31.786V26H30.01V24.224L30.334 24.74C30.118 25.188 29.798 25.528 29.374 25.76C28.958 25.984 28.502 26.096 28.006 26.096Z" fill="white"/>
<path d="M33.5202 26V17.096H35.3922V26H33.5202Z" fill="white"/>
<path d="M37.1296 26V17.096H39.0016V26H37.1296Z" fill="white"/>
<path d="M43.631 26.144C42.959 26.144 42.315 26.056 41.699 25.88C41.083 25.696 40.587 25.46 40.211 25.172L40.871 23.708C41.231 23.964 41.655 24.176 42.143 24.344C42.639 24.504 43.139 24.584 43.643 24.584C44.027 24.584 44.335 24.548 44.567 24.476C44.807 24.396 44.983 24.288 45.095 24.152C45.207 24.016 45.263 23.86 45.263 23.684C45.263 23.46 45.175 23.284 44.999 23.156C44.823 23.02 44.591 22.912 44.303 22.832C44.015 22.744 43.695 22.664 43.343 22.592C42.999 22.512 42.651 22.416 42.299 22.304C41.955 22.192 41.639 22.048 41.351 21.872C41.063 21.696 40.827 21.464 40.643 21.176C40.467 20.888 40.379 20.52 40.379 20.072C40.379 19.592 40.507 19.156 40.763 18.764C41.027 18.364 41.419 18.048 41.939 17.816C42.467 17.576 43.127 17.456 43.919 17.456C44.447 17.456 44.967 17.52 45.479 17.648C45.991 17.768 46.443 17.952 46.835 18.2L46.235 19.676C45.843 19.452 45.451 19.288 45.059 19.184C44.667 19.072 44.283 19.016 43.907 19.016C43.531 19.016 43.223 19.06 42.983 19.148C42.743 19.236 42.571 19.352 42.467 19.496C42.363 19.632 42.311 19.792 42.311 19.976C42.311 20.192 42.399 20.368 42.575 20.504C42.751 20.632 42.983 20.736 43.271 20.816C43.559 20.896 43.875 20.976 44.219 21.056C44.571 21.136 44.919 21.228 45.263 21.332C45.615 21.436 45.935 21.576 46.223 21.752C46.511 21.928 46.743 22.16 46.919 22.448C47.103 22.736 47.195 23.1 47.195 23.54C47.195 24.012 47.063 24.444 46.799 24.836C46.535 25.228 46.139 25.544 45.611 25.784C45.091 26.024 44.431 26.144 43.631 26.144Z" fill="white"/>
<path d="M51.0313 26.096C50.2713 26.096 49.6793 25.904 49.2553 25.52C48.8313 25.128 48.6193 24.548 48.6193 23.78V18.116H50.4913V23.756C50.4913 24.028 50.5633 24.24 50.7073 24.392C50.8513 24.536 51.0473 24.608 51.2953 24.608C51.5913 24.608 51.8433 24.528 52.0513 24.368L52.5553 25.688C52.3633 25.824 52.1313 25.928 51.8593 26C51.5953 26.064 51.3193 26.096 51.0313 26.096ZM47.6233 21.128V19.688H52.0993V21.128H47.6233Z" fill="white"/>
<path d="M57.5662 26V24.74L57.4462 24.464V22.208C57.4462 21.808 57.3222 21.496 57.0742 21.272C56.8342 21.048 56.4622 20.936 55.9582 20.936C55.6142 20.936 55.2742 20.992 54.9382 21.104C54.6102 21.208 54.3302 21.352 54.0982 21.536L53.4262 20.228C53.7782 19.98 54.2022 19.788 54.6982 19.652C55.1942 19.516 55.6982 19.448 56.2102 19.448C57.1942 19.448 57.9582 19.68 58.5022 20.144C59.0462 20.608 59.3182 21.332 59.3182 22.316V26H57.5662ZM55.5982 26.096C55.0942 26.096 54.6622 26.012 54.3022 25.844C53.9422 25.668 53.6662 25.432 53.4742 25.136C53.2822 24.84 53.1862 24.508 53.1862 24.14C53.1862 23.756 53.2782 23.42 53.4622 23.132C53.6542 22.844 53.9542 22.62 54.3622 22.46C54.7702 22.292 55.3022 22.208 55.9582 22.208H57.6742V23.3H56.1622C55.7222 23.3 55.4182 23.372 55.2502 23.516C55.0902 23.66 55.0102 23.84 55.0102 24.056C55.0102 24.296 55.1022 24.488 55.2862 24.632C55.4782 24.768 55.7382 24.836 56.0662 24.836C56.3782 24.836 56.6582 24.764 56.9062 24.62C57.1542 24.468 57.3342 24.248 57.4462 23.96L57.7342 24.824C57.5982 25.24 57.3502 25.556 56.9902 25.772C56.6302 25.988 56.1662 26.096 55.5982 26.096Z" fill="white"/>
<path d="M64.1793 26.096C63.4833 26.096 62.8633 25.956 62.3193 25.676C61.7753 25.388 61.3473 24.992 61.0353 24.488C60.7313 23.984 60.5793 23.412 60.5793 22.772C60.5793 22.124 60.7313 21.552 61.0353 21.056C61.3473 20.552 61.7753 20.16 62.3193 19.88C62.8633 19.592 63.4833 19.448 64.1793 19.448C64.8593 19.448 65.4513 19.592 65.9553 19.88C66.4593 20.16 66.8313 20.564 67.0713 21.092L65.6193 21.872C65.4513 21.568 65.2393 21.344 64.9833 21.2C64.7353 21.056 64.4633 20.984 64.1673 20.984C63.8473 20.984 63.5593 21.056 63.3033 21.2C63.0473 21.344 62.8433 21.548 62.6913 21.812C62.5473 22.076 62.4753 22.396 62.4753 22.772C62.4753 23.148 62.5473 23.468 62.6913 23.732C62.8433 23.996 63.0473 24.2 63.3033 24.344C63.5593 24.488 63.8473 24.56 64.1673 24.56C64.4633 24.56 64.7353 24.492 64.9833 24.356C65.2393 24.212 65.4513 23.984 65.6193 23.672L67.0713 24.464C66.8313 24.984 66.4593 25.388 65.9553 25.676C65.4513 25.956 64.8593 26.096 64.1793 26.096Z" fill="white"/>
<path d="M69.662 24.68L69.71 22.4L72.722 19.544H74.954L72.062 22.484L71.09 23.276L69.662 24.68ZM68.114 26V17.096H69.986V26H68.114ZM72.926 26L70.742 23.288L71.918 21.836L75.194 26H72.926Z" fill="white"/>
<path d="M79.5663 26V17.6H83.3823C84.2943 17.6 85.0983 17.776 85.7943 18.128C86.4903 18.472 87.0343 18.956 87.4263 19.58C87.8183 20.204 88.0143 20.944 88.0143 21.8C88.0143 22.648 87.8183 23.388 87.4263 24.02C87.0343 24.644 86.4903 25.132 85.7943 25.484C85.0983 25.828 84.2943 26 83.3823 26H79.5663ZM81.5103 24.404H83.2863C83.8463 24.404 84.3303 24.3 84.7383 24.092C85.1543 23.876 85.4743 23.572 85.6983 23.18C85.9303 22.788 86.0463 22.328 86.0463 21.8C86.0463 21.264 85.9303 20.804 85.6983 20.42C85.4743 20.028 85.1543 19.728 84.7383 19.52C84.3303 19.304 83.8463 19.196 83.2863 19.196H81.5103V24.404Z" fill="white"/>
<path d="M92.5524 26.096C91.8164 26.096 91.1684 25.952 90.6084 25.664C90.0564 25.376 89.6284 24.984 89.3244 24.488C89.0204 23.984 88.8684 23.412 88.8684 22.772C88.8684 22.124 89.0164 21.552 89.3124 21.056C89.6164 20.552 90.0284 20.16 90.5484 19.88C91.0684 19.592 91.6564 19.448 92.3124 19.448C92.9444 19.448 93.5124 19.584 94.0164 19.856C94.5284 20.12 94.9324 20.504 95.2284 21.008C95.5244 21.504 95.6724 22.1 95.6724 22.796C95.6724 22.868 95.6684 22.952 95.6604 23.048C95.6524 23.136 95.6444 23.22 95.6364 23.3H90.3924V22.208H94.6524L93.9324 22.532C93.9324 22.196 93.8644 21.904 93.7284 21.656C93.5924 21.408 93.4044 21.216 93.1644 21.08C92.9244 20.936 92.6444 20.864 92.3244 20.864C92.0044 20.864 91.7204 20.936 91.4724 21.08C91.2324 21.216 91.0444 21.412 90.9084 21.668C90.7724 21.916 90.7044 22.212 90.7044 22.556V22.844C90.7044 23.196 90.7804 23.508 90.9324 23.78C91.0924 24.044 91.3124 24.248 91.5924 24.392C91.8804 24.528 92.2164 24.596 92.6004 24.596C92.9444 24.596 93.2444 24.544 93.5004 24.44C93.7644 24.336 94.0044 24.18 94.2204 23.972L95.2164 25.052C94.9204 25.388 94.5484 25.648 94.1004 25.832C93.6524 26.008 93.1364 26.096 92.5524 26.096Z" fill="white"/>
<path d="M98.5535 26L95.8415 19.544H97.7735L100.029 25.1H99.0695L101.409 19.544H103.209L100.485 26H98.5535Z" fill="white"/>
<path d="M107.002 26.096C106.266 26.096 105.618 25.952 105.058 25.664C104.506 25.376 104.078 24.984 103.774 24.488C103.47 23.984 103.318 23.412 103.318 22.772C103.318 22.124 103.466 21.552 103.762 21.056C104.066 20.552 104.478 20.16 104.998 19.88C105.518 19.592 106.106 19.448 106.762 19.448C107.394 19.448 107.962 19.584 108.466 19.856C108.978 20.12 109.382 20.504 109.678 21.008C109.974 21.504 110.122 22.1 110.122 22.796C110.122 22.868 110.118 22.952 110.11 23.048C110.102 23.136 110.094 23.22 110.086 23.3H104.842V22.208H109.102L108.382 22.532C108.382 22.196 108.314 21.904 108.178 21.656C108.042 21.408 107.854 21.216 107.614 21.08C107.374 20.936 107.094 20.864 106.774 20.864C106.454 20.864 106.17 20.936 105.922 21.08C105.682 21.216 105.494 21.412 105.358 21.668C105.222 21.916 105.154 22.212 105.154 22.556V22.844C105.154 23.196 105.23 23.508 105.382 23.78C105.542 24.044 105.762 24.248 106.042 24.392C106.33 24.528 106.666 24.596 107.05 24.596C107.394 24.596 107.694 24.544 107.95 24.44C108.214 24.336 108.454 24.18 108.67 23.972L109.666 25.052C109.37 25.388 108.998 25.648 108.55 25.832C108.102 26.008 107.586 26.096 107.002 26.096Z" fill="white"/>
<path d="M111.368 26V17.096H113.24V26H111.368Z" fill="white"/>
<path d="M118.049 26.096C117.361 26.096 116.749 25.952 116.213 25.664C115.685 25.376 115.265 24.984 114.953 24.488C114.649 23.984 114.497 23.412 114.497 22.772C114.497 22.124 114.649 21.552 114.953 21.056C115.265 20.552 115.685 20.16 116.213 19.88C116.749 19.592 117.361 19.448 118.049 19.448C118.729 19.448 119.337 19.592 119.873 19.88C120.409 20.16 120.829 20.548 121.133 21.044C121.437 21.54 121.589 22.116 121.589 22.772C121.589 23.412 121.437 23.984 121.133 24.488C120.829 24.984 120.409 25.376 119.873 25.664C119.337 25.952 118.729 26.096 118.049 26.096ZM118.049 24.56C118.361 24.56 118.641 24.488 118.889 24.344C119.137 24.2 119.333 23.996 119.477 23.732C119.621 23.46 119.693 23.14 119.693 22.772C119.693 22.396 119.621 22.076 119.477 21.812C119.333 21.548 119.137 21.344 118.889 21.2C118.641 21.056 118.361 20.984 118.049 20.984C117.737 20.984 117.457 21.056 117.209 21.2C116.961 21.344 116.761 21.548 116.609 21.812C116.465 22.076 116.393 22.396 116.393 22.772C116.393 23.14 116.465 23.46 116.609 23.732C116.761 23.996 116.961 24.2 117.209 24.344C117.457 24.488 117.737 24.56 118.049 24.56Z" fill="white"/>
<path d="M126.657 26.096C126.113 26.096 125.637 25.976 125.229 25.736C124.821 25.496 124.501 25.132 124.269 24.644C124.045 24.148 123.933 23.524 123.933 22.772C123.933 22.012 124.041 21.388 124.257 20.9C124.473 20.412 124.785 20.048 125.193 19.808C125.601 19.568 126.089 19.448 126.657 19.448C127.265 19.448 127.809 19.588 128.289 19.868C128.777 20.14 129.161 20.524 129.441 21.02C129.729 21.516 129.873 22.1 129.873 22.772C129.873 23.452 129.729 24.04 129.441 24.536C129.161 25.032 128.777 25.416 128.289 25.688C127.809 25.96 127.265 26.096 126.657 26.096ZM122.841 28.328V19.544H124.629V20.864L124.593 22.784L124.713 24.692V28.328H122.841ZM126.333 24.56C126.645 24.56 126.921 24.488 127.161 24.344C127.409 24.2 127.605 23.996 127.749 23.732C127.901 23.46 127.977 23.14 127.977 22.772C127.977 22.396 127.901 22.076 127.749 21.812C127.605 21.548 127.409 21.344 127.161 21.2C126.921 21.056 126.645 20.984 126.333 20.984C126.021 20.984 125.741 21.056 125.493 21.2C125.245 21.344 125.049 21.548 124.905 21.812C124.761 22.076 124.689 22.396 124.689 22.772C124.689 23.14 124.761 23.46 124.905 23.732C125.049 23.996 125.245 24.2 125.493 24.344C125.741 24.488 126.021 24.56 126.333 24.56Z" fill="white"/>
<path d="M134.33 26.096C133.594 26.096 132.946 25.952 132.386 25.664C131.834 25.376 131.406 24.984 131.102 24.488C130.798 23.984 130.646 23.412 130.646 22.772C130.646 22.124 130.794 21.552 131.09 21.056C131.394 20.552 131.806 20.16 132.326 19.88C132.846 19.592 133.434 19.448 134.09 19.448C134.722 19.448 135.29 19.584 135.794 19.856C136.306 20.12 136.71 20.504 137.006 21.008C137.302 21.504 137.45 22.1 137.45 22.796C137.45 22.868 137.446 22.952 137.438 23.048C137.43 23.136 137.422 23.22 137.414 23.3H132.17V22.208H136.43L135.71 22.532C135.71 22.196 135.642 21.904 135.506 21.656C135.37 21.408 135.182 21.216 134.942 21.08C134.702 20.936 134.422 20.864 134.102 20.864C133.782 20.864 133.498 20.936 133.25 21.08C133.01 21.216 132.822 21.412 132.686 21.668C132.55 21.916 132.482 22.212 132.482 22.556V22.844C132.482 23.196 132.558 23.508 132.71 23.78C132.87 24.044 133.09 24.248 133.37 24.392C133.658 24.528 133.994 24.596 134.378 24.596C134.722 24.596 135.022 24.544 135.278 24.44C135.542 24.336 135.782 24.18 135.998 23.972L136.994 25.052C136.698 25.388 136.326 25.648 135.878 25.832C135.43 26.008 134.914 26.096 134.33 26.096Z" fill="white"/>
<path d="M138.696 26V19.544H140.484V21.368L140.232 20.84C140.424 20.384 140.732 20.04 141.156 19.808C141.58 19.568 142.096 19.448 142.704 19.448V21.176C142.624 21.168 142.552 21.164 142.488 21.164C142.424 21.156 142.356 21.152 142.284 21.152C141.772 21.152 141.356 21.3 141.036 21.596C140.724 21.884 140.568 22.336 140.568 22.952V26H138.696Z" fill="white"/>
</svg>
